<?xml version="1.0" encoding="utf-8"?><svg xmlns="http://www.w3.org/2000/svg" xmlns:xlink="http://www.w3.org/1999/xlink"><symbol viewBox="0 0 188 33" id="1750766383616" xmlns="http://www.w3.org/2000/svg"><path fill-rule="evenodd" clip-rule="evenodd" d="M.866.486H26.52l11.822 16.11-11.822 15.77H.866v-20.56h8.22V24.38h12.567l6.079-7.865-6.079-8.042H.866V.486z"/><path d="M182.077 9.118v16.638h-3.163V9.118h-5.18V6.444h13.496v2.674h-5.153zm-13.759 16.638V6.444h3.163v19.312h-3.163zm-4.558-.774c0 2.444-.49 4.164-1.476 5.163-.986 1-2.649 1.5-4.985 1.5-1.74 0-3.131-.366-4.167-1.095-1.04-.725-1.567-1.692-1.586-2.903l3.104-.014c.045.54.3.954.759 1.238.463.284 1.113.423 1.945.423 1.235 0 2.121-.27 2.662-.806.546-.535.818-1.436.827-2.692l.028-1.656c-.514.715-1.118 1.251-1.804 1.602-.691.351-1.477.527-2.368.527-1.781 0-3.19-.603-4.212-1.814-1.027-1.206-1.54-2.863-1.54-4.965 0-1.995.522-3.606 1.572-4.83 1.049-1.23 2.417-1.842 4.103-1.842 1.031 0 1.913.212 2.644.64a3.742 3.742 0 011.605 1.832v-2.04h2.889v11.732zm-2.808-5.52c0-1.291-.304-2.3-.913-3.02-.609-.725-1.459-1.085-2.549-1.085-1.095 0-1.954.374-2.577 1.117-.626.742-.94 1.778-.94 3.097 0 1.328.3 2.354.904 3.074.605.725 1.459 1.085 2.558 1.085 1.041 0 1.886-.392 2.536-1.175.654-.783.981-1.814.981-3.092zm-24.969 6.294V13.25h2.717v2.053c.577-.864 1.254-1.495 2.036-1.89.782-.397 1.731-.595 2.854-.595.94 0 1.74.149 2.403.441a3.505 3.505 0 011.55 1.315c.222.342.381.742.481 1.202.096.454.146 1.256.146 2.4v7.58h-2.917v-6.42c0-1.643-.2-2.736-.605-3.277-.404-.54-1.122-.81-2.154-.81-.672 0-1.276.122-1.803.37a2.998 2.998 0 00-1.246 1.04c-.213.3-.363.683-.445 1.156-.086.468-.127 1.215-.127 2.246v5.695h-2.89zm-7.011 0V13.25h2.89v12.506h-2.89zm-.382-17.908c0-.481.182-.9.541-1.256a1.772 1.772 0 011.286-.527c.513 0 .945.172 1.286.51.341.337.513.764.513 1.273 0 .513-.172.941-.518 1.288-.35.346-.777.522-1.281.522-.5 0-.927-.18-1.286-.536a1.73 1.73 0 01-.541-1.274zm-15.78 17.908V13.25h2.717v2.053c.577-.864 1.254-1.495 2.035-1.89.782-.397 1.732-.595 2.854-.595.941 0 1.74.149 2.404.441a3.497 3.497 0 011.549 1.315c.223.342.382.742.482 1.202.095.454.145 1.256.145 2.4v7.58h-2.917v-6.42c0-1.643-.2-2.736-.604-3.277-.405-.54-1.123-.81-2.154-.81-.673 0-1.277.122-1.804.37a3.001 3.001 0 00-1.245 1.04c-.214.3-.363.683-.445 1.156-.087.468-.128 1.215-.128 2.246v5.695h-2.889zm-3.981-.774c0 2.444-.491 4.164-1.477 5.163-.986 1-2.649 1.5-4.984 1.5-1.741 0-3.13-.366-4.167-1.095-1.04-.725-1.568-1.692-1.586-2.903l3.104-.014c.045.54.3.954.759 1.238.463.284 1.113.423 1.944.423 1.236 0 2.122-.27 2.663-.806.545-.535.818-1.436.827-2.692l.027-1.656c-.513.715-1.117 1.251-1.804 1.602-.69.351-1.476.527-2.367.527-1.781 0-3.19-.603-4.212-1.814-1.027-1.206-1.54-2.863-1.54-4.965 0-1.995.522-3.606 1.572-4.83 1.05-1.23 2.417-1.842 4.103-1.842 1.031 0 1.913.212 2.644.64a3.735 3.735 0 011.604 1.832v-2.04h2.89v11.732zm-2.808-5.52c0-1.291-.304-2.3-.913-3.02-.609-.725-1.459-1.085-2.549-1.085-1.095 0-1.954.374-2.577 1.117-.627.742-.94 1.778-.94 3.097 0 1.328.3 2.354.904 3.074.604.725 1.458 1.085 2.558 1.085 1.041 0 1.886-.392 2.536-1.175.654-.783.981-1.814.981-3.092zm-15.954 6.294V13.25h2.89v12.506h-2.89zm-.382-17.908c0-.481.182-.9.54-1.256a1.772 1.772 0 011.287-.527c.513 0 .945.172 1.286.51.34.337.513.764.513 1.273 0 .513-.173.941-.518 1.288-.35.346-.777.522-1.281.522-.5 0-.927-.18-1.286-.536a1.731 1.731 0 01-.54-1.274zM76.876 23.487l2.4-1.296c.177.625.504 1.103.985 1.427.478.328 1.095.49 1.845.49.65 0 1.159-.148 1.527-.44.368-.298.55-.698.55-1.212 0-.675-.655-1.256-1.968-1.742a14.01 14.01 0 01-1.022-.396c-1.35-.554-2.295-1.116-2.831-1.688-.536-.567-.804-1.265-.804-2.08 0-1.116.44-2.021 1.322-2.719.886-.693 2.054-1.04 3.508-1.04.977 0 1.813.18 2.508.536.695.356 1.204.86 1.522 1.521l-2.049 1.4a1.87 1.87 0 00-.79-.945 2.43 2.43 0 00-1.31-.351c-.549 0-.99.13-1.322.387a1.26 1.26 0 00-.5 1.04c0 .648.746 1.242 2.232 1.778.472.167.836.306 1.09.41 1.163.46 1.995.972 2.5 1.548.5.577.75 1.297.75 2.157 0 1.251-.46 2.228-1.373 2.935-.913.707-2.172 1.062-3.78 1.062-1.232 0-2.259-.23-3.072-.684-.818-.46-1.454-1.157-1.918-2.098zm-1.423-3.565H65.366c.073 1.17.422 2.084 1.054 2.741.627.657 1.468.986 2.517.986.932 0 1.709-.193 2.327-.58.622-.388 1.163-1.014 1.627-1.878l2.426 1.346c-.709 1.26-1.586 2.193-2.635 2.81-1.046.616-2.277.922-3.686.922-2.026 0-3.635-.612-4.834-1.832-1.195-1.225-1.795-2.854-1.795-4.893 0-1.963.618-3.57 1.858-4.835 1.237-1.26 2.827-1.89 4.772-1.89 2.03 0 3.616.575 4.752 1.728 1.136 1.148 1.704 2.764 1.704 4.834v.54zm-2.999-1.918c-.113-.896-.459-1.58-1.036-2.048-.577-.473-1.367-.707-2.367-.707-.95 0-1.713.23-2.29.684-.572.46-.977 1.148-1.209 2.071h6.902zM56.424 5.31h2.89v20.446h-2.89V24.14c-.514.715-1.118 1.251-1.804 1.602-.69.351-1.477.527-2.368.527-1.78 0-3.19-.603-4.212-1.814-1.027-1.206-1.54-2.863-1.54-4.965 0-1.995.523-3.606 1.572-4.83 1.05-1.23 2.417-1.842 4.103-1.842 1.032 0 1.913.212 2.645.64a3.738 3.738 0 011.604 1.832V5.31zm.082 14.153c0-1.292-.305-2.3-.914-3.021-.609-.725-1.458-1.085-2.549-1.085-1.095 0-1.954.374-2.576 1.117-.627.742-.94 1.778-.94 3.097 0 1.328.299 2.354.904 3.074.604.725 1.458 1.085 2.558 1.085 1.045 0 1.895-.392 2.544-1.17.645-.779.973-1.81.973-3.097z"/></symbol><symbol viewBox="0 0 391 335" id="arrow-right" xmlns="http://www.w3.org/2000/svg"><path d="M223.408.52l-41.785 41.786 97.5 97.5H.551v55.714h278.571l-97.499 97.501 41.785 41.786 167.143-167.143L223.408.521z"/></symbol><symbol viewBox="0 0 14 15" id="arrow-right2" xmlns="http://www.w3.org/2000/svg"><path fill-rule="evenodd" clip-rule="evenodd" d="M2.804 14.972L14 14.977l-.001-11.2-1.399-.002v8.812L.99.977l-.99.99 11.61 11.61H2.8l.004 1.395z"/></symbol><symbol viewBox="0 0 32 21" id="be" xmlns="http://www.w3.org/2000/svg"><path d="M16.484 13.946c0-2.464-1.172-4.285-3.593-4.968 1.766-.841 2.688-2.116 2.688-4.099 0-3.91-2.923-4.862-6.295-4.862H0v19.628h9.544c3.579 0 6.94-1.711 6.94-5.699zM4.328 3.367h4.061c1.562 0 2.967.438 2.967 2.243 0 1.667-1.093 2.337-2.64 2.337H4.328v-4.58zm-.001 12.944v-5.405h4.717c1.905 0 3.11.792 3.11 2.803 0 1.982-1.438 2.602-3.2 2.602H4.328zm20.734 3.706c3.406 0 5.611-1.53 6.672-4.78h-3.456c-.372 1.213-1.905 1.854-3.094 1.854-2.295 0-3.5-1.34-3.5-3.617h10.284c.325-4.557-2.214-8.441-6.907-8.441-4.345 0-7.295 3.256-7.295 7.521 0 4.427 2.795 7.463 7.296 7.463zM24.94 7.982c1.966 0 2.956 1.152 3.121 3.036h-6.372c.13-1.868 1.373-3.036 3.25-3.036zm-4.05-6.935h7.983v1.934H20.89V1.047z"/></symbol><symbol viewBox="0 0 29 29" id="creativity" xmlns="http://www.w3.org/2000/svg"><g clip-path="url(#eclip0)"><path d="M29 28.813H14.5V13.868m-7.25 0c4.004 0 7.25 3.346 7.25 7.473s-3.246 7.472-7.25 7.472S0 25.468 0 21.341c0-4.127 3.246-7.473 7.25-7.473zm0 0h12.666V.813H7.25v13.055z"/></g><defs><clipPath id="eclip0"><path transform="translate(0 .813)" d="M0 0h29v28H0z"/></clipPath></defs></symbol><symbol viewBox="0 0 22 30" id="customer" xmlns="http://www.w3.org/2000/svg"><circle cx="10.906" cy="19.672" r="8.82"/><circle cx="10.906" cy="4.866" r="4.052"/></symbol><symbol viewBox="0 0 21 21" id="dribble" xmlns="http://www.w3.org/2000/svg"><g clip-path="url(#gclip0)"><path d="M14.002 10.921a40.376 40.376 0 012.182 7.647 10.082 10.082 0 001.88-1.48 9.927 9.927 0 002.791-5.405 12.39 12.39 0 00-4.746-.94c-.718 0-1.422.061-2.107.178zm4.071-7.967l-.009-.008a9.935 9.935 0 00-7.07-2.93c-1.045 0-2.065.16-3.033.467a40.52 40.52 0 014.085 6.21 23.21 23.21 0 006.027-3.739zm.785.886a24.206 24.206 0 01-6.27 3.903c.337.679.655 1.369.956 2.068a13.7 13.7 0 017.439.658 9.924 9.924 0 00-2.124-6.63zM4.838 17.9a9.924 9.924 0 006.155 2.117 9.973 9.973 0 004.098-.873 39.301 39.301 0 00-2.258-7.964 12.512 12.512 0 00-7.995 6.72z"/><path d="M10.804 10.641a13.582 13.582 0 011.571-.553 39.6 39.6 0 00-.893-1.904 24.2 24.2 0 01-8.46 1.511c-.678 0-1.351-.027-2.02-.082a9.934 9.934 0 002.92 7.475l.002.001a13.592 13.592 0 012.549-3.528 13.585 13.585 0 014.331-2.92zm.13-3.509A39.8 39.8 0 006.794.936a10.006 10.006 0 00-2.872 2.01 9.925 9.925 0 00-2.806 5.5c.628.05 1.264.078 1.906.078 2.777 0 5.442-.492 7.912-1.392z"/></g><defs><clipPath id="gclip0"><path transform="translate(.993 .017)" d="M0 0h20v20H0z"/></clipPath></defs></symbol><symbol viewBox="0 0 560 615" id="ellipse" xmlns="http://www.w3.org/2000/svg"><circle cx="252.551" cy="307.664" r="306.51"/></symbol><symbol viewBox="0 0 21 21" id="facebook" xmlns="http://www.w3.org/2000/svg"><g clip-path="url(#iclip0)"><path d="M14.082 3.337h1.792V.157c-.31-.043-1.373-.14-2.612-.14-2.584 0-4.355 1.655-4.355 4.699v2.8H6.055v3.556h2.852v8.945h3.497v-8.945h2.737l.434-3.555h-3.172V5.068c.001-1.027.273-1.73 1.678-1.73z"/></g><defs><clipPath id="iclip0"><path transform="translate(.993 .017)" d="M0 0h19.636v20H0z"/></clipPath></defs></symbol><symbol viewBox="0 0 188 33" id="logotype" xmlns="http://www.w3.org/2000/svg"><path fill-rule="evenodd" clip-rule="evenodd" d="M.866.486H26.52l11.822 16.11-11.822 15.77H.866v-20.56h8.22V24.38h12.567l6.079-7.865-6.079-8.042H.866V.486z"/><path d="M182.077 9.118v16.638h-3.163V9.118h-5.18V6.444h13.496v2.674h-5.153zm-13.759 16.638V6.444h3.163v19.312h-3.163zm-4.558-.774c0 2.444-.49 4.164-1.476 5.163-.986 1-2.649 1.5-4.985 1.5-1.74 0-3.131-.366-4.167-1.095-1.04-.725-1.567-1.692-1.586-2.903l3.104-.014c.045.54.3.954.759 1.238.463.284 1.113.423 1.945.423 1.235 0 2.121-.27 2.662-.806.546-.535.818-1.436.827-2.692l.028-1.656c-.514.715-1.118 1.251-1.804 1.602-.691.351-1.477.527-2.368.527-1.781 0-3.19-.603-4.212-1.814-1.027-1.206-1.54-2.863-1.54-4.965 0-1.995.522-3.606 1.572-4.83 1.049-1.23 2.417-1.842 4.103-1.842 1.031 0 1.913.212 2.644.64a3.742 3.742 0 011.605 1.832v-2.04h2.889v11.732zm-2.808-5.52c0-1.291-.304-2.3-.913-3.02-.609-.725-1.459-1.085-2.549-1.085-1.095 0-1.954.374-2.577 1.117-.626.742-.94 1.778-.94 3.097 0 1.328.3 2.354.904 3.074.605.725 1.459 1.085 2.558 1.085 1.041 0 1.886-.392 2.536-1.175.654-.783.981-1.814.981-3.092zm-24.969 6.294V13.25h2.717v2.053c.577-.864 1.254-1.495 2.036-1.89.782-.397 1.731-.595 2.854-.595.94 0 1.74.149 2.403.441a3.505 3.505 0 011.55 1.315c.222.342.381.742.481 1.202.096.454.146 1.256.146 2.4v7.58h-2.917v-6.42c0-1.643-.2-2.736-.605-3.277-.404-.54-1.122-.81-2.154-.81-.672 0-1.276.122-1.803.37a2.998 2.998 0 00-1.246 1.04c-.213.3-.363.683-.445 1.156-.086.468-.127 1.215-.127 2.246v5.695h-2.89zm-7.011 0V13.25h2.89v12.506h-2.89zm-.382-17.908c0-.481.182-.9.541-1.256a1.772 1.772 0 011.286-.527c.513 0 .945.172 1.286.51.341.337.513.764.513 1.273 0 .513-.172.941-.518 1.288-.35.346-.777.522-1.281.522-.5 0-.927-.18-1.286-.536a1.73 1.73 0 01-.541-1.274zm-15.78 17.908V13.25h2.717v2.053c.577-.864 1.254-1.495 2.035-1.89.782-.397 1.732-.595 2.854-.595.941 0 1.74.149 2.404.441a3.497 3.497 0 011.549 1.315c.223.342.382.742.482 1.202.095.454.145 1.256.145 2.4v7.58h-2.917v-6.42c0-1.643-.2-2.736-.604-3.277-.405-.54-1.123-.81-2.154-.81-.673 0-1.277.122-1.804.37a3.001 3.001 0 00-1.245 1.04c-.214.3-.363.683-.445 1.156-.087.468-.128 1.215-.128 2.246v5.695h-2.889zm-3.981-.774c0 2.444-.491 4.164-1.477 5.163-.986 1-2.649 1.5-4.984 1.5-1.741 0-3.13-.366-4.167-1.095-1.04-.725-1.568-1.692-1.586-2.903l3.104-.014c.045.54.3.954.759 1.238.463.284 1.113.423 1.944.423 1.236 0 2.122-.27 2.663-.806.545-.535.818-1.436.827-2.692l.027-1.656c-.513.715-1.117 1.251-1.804 1.602-.69.351-1.476.527-2.367.527-1.781 0-3.19-.603-4.212-1.814-1.027-1.206-1.54-2.863-1.54-4.965 0-1.995.522-3.606 1.572-4.83 1.05-1.23 2.417-1.842 4.103-1.842 1.031 0 1.913.212 2.644.64a3.735 3.735 0 011.604 1.832v-2.04h2.89v11.732zm-2.808-5.52c0-1.291-.304-2.3-.913-3.02-.609-.725-1.459-1.085-2.549-1.085-1.095 0-1.954.374-2.577 1.117-.627.742-.94 1.778-.94 3.097 0 1.328.3 2.354.904 3.074.604.725 1.458 1.085 2.558 1.085 1.041 0 1.886-.392 2.536-1.175.654-.783.981-1.814.981-3.092zm-15.954 6.294V13.25h2.89v12.506h-2.89zm-.382-17.908c0-.481.182-.9.54-1.256a1.772 1.772 0 011.287-.527c.513 0 .945.172 1.286.51.34.337.513.764.513 1.273 0 .513-.173.941-.518 1.288-.35.346-.777.522-1.281.522-.5 0-.927-.18-1.286-.536a1.731 1.731 0 01-.54-1.274zM76.876 23.487l2.4-1.296c.177.625.504 1.103.985 1.427.478.328 1.095.49 1.845.49.65 0 1.159-.148 1.527-.44.368-.298.55-.698.55-1.212 0-.675-.655-1.256-1.968-1.742a14.01 14.01 0 01-1.022-.396c-1.35-.554-2.295-1.116-2.831-1.688-.536-.567-.804-1.265-.804-2.08 0-1.116.44-2.021 1.322-2.719.886-.693 2.054-1.04 3.508-1.04.977 0 1.813.18 2.508.536.695.356 1.204.86 1.522 1.521l-2.049 1.4a1.87 1.87 0 00-.79-.945 2.43 2.43 0 00-1.31-.351c-.549 0-.99.13-1.322.387a1.26 1.26 0 00-.5 1.04c0 .648.746 1.242 2.232 1.778.472.167.836.306 1.09.41 1.163.46 1.995.972 2.5 1.548.5.577.75 1.297.75 2.157 0 1.251-.46 2.228-1.373 2.935-.913.707-2.172 1.062-3.78 1.062-1.232 0-2.259-.23-3.072-.684-.818-.46-1.454-1.157-1.918-2.098zm-1.423-3.565H65.366c.073 1.17.422 2.084 1.054 2.741.627.657 1.468.986 2.517.986.932 0 1.709-.193 2.327-.58.622-.388 1.163-1.014 1.627-1.878l2.426 1.346c-.709 1.26-1.586 2.193-2.635 2.81-1.046.616-2.277.922-3.686.922-2.026 0-3.635-.612-4.834-1.832-1.195-1.225-1.795-2.854-1.795-4.893 0-1.963.618-3.57 1.858-4.835 1.237-1.26 2.827-1.89 4.772-1.89 2.03 0 3.616.575 4.752 1.728 1.136 1.148 1.704 2.764 1.704 4.834v.54zm-2.999-1.918c-.113-.896-.459-1.58-1.036-2.048-.577-.473-1.367-.707-2.367-.707-.95 0-1.713.23-2.29.684-.572.46-.977 1.148-1.209 2.071h6.902zM56.424 5.31h2.89v20.446h-2.89V24.14c-.514.715-1.118 1.251-1.804 1.602-.69.351-1.477.527-2.368.527-1.78 0-3.19-.603-4.212-1.814-1.027-1.206-1.54-2.863-1.54-4.965 0-1.995.523-3.606 1.572-4.83 1.05-1.23 2.417-1.842 4.103-1.842 1.032 0 1.913.212 2.645.64a3.738 3.738 0 011.604 1.832V5.31zm.082 14.153c0-1.292-.305-2.3-.914-3.021-.609-.725-1.458-1.085-2.549-1.085-1.095 0-1.954.374-2.576 1.117-.627.742-.94 1.778-.94 3.097 0 1.328.299 2.354.904 3.074.604.725 1.458 1.085 2.558 1.085 1.045 0 1.895-.392 2.544-1.17.645-.779.973-1.81.973-3.097z"/></symbol><symbol viewBox="0 0 24 24" id="menu-bar" xmlns="http://www.w3.org/2000/svg"><path d="M.726.354h22.359v4H.726zm0 9.362h22.359v4H.726zm0 9.361h22.359v4H.726z"/></symbol><symbol viewBox="0 0 22 26" id="polygon" xmlns="http://www.w3.org/2000/svg"><path d="M21.942 12.98L.146 25.564V.396L21.942 12.98z"/></symbol><symbol viewBox="0 0 27 27" id="security" xmlns="http://www.w3.org/2000/svg"><g clip-path="url(#mclip0)"><path d="M24.62 4.876c-4.606 0-8.136-1.268-11.12-4.063-2.985 2.795-6.514 4.063-11.12 4.063 0 7.278-1.565 17.703 11.12 21.938 12.685-4.235 11.12-14.66 11.12-21.938zM12.579 17.683l-3.705-3.568 1.66-1.598 2.045 1.971 3.89-3.745 1.658 1.597-5.548 5.343z"/></g><defs><clipPath id="mclip0"><path transform="translate(0 .813)" d="M0 0h27v26H0z"/></clipPath></defs></symbol><symbol viewBox="0 0 30 30" id="target" xmlns="http://www.w3.org/2000/svg"><g clip-path="url(#nclip0)"><path d="M14.906 9.845a5.271 5.271 0 00-5.273 5.273 5.271 5.271 0 005.273 5.272 5.271 5.271 0 005.272-5.272 5.271 5.271 0 00-5.272-5.273zm11.784 3.954A11.856 11.856 0 0016.224 3.334V.618h-2.637v2.715A11.856 11.856 0 003.121 13.8H.406v2.637H3.12a11.856 11.856 0 0010.466 10.466v2.716h2.637v-2.716A11.856 11.856 0 0026.69 16.436h2.716V13.8H26.69zM14.906 24.346c-5.095 0-9.228-4.133-9.228-9.227 0-5.095 4.133-9.228 9.228-9.228 5.094 0 9.227 4.133 9.227 9.228 0 5.094-4.133 9.227-9.227 9.227z"/></g><defs><clipPath id="nclip0"><path transform="translate(.406 .618)" d="M0 0h29v29H0z"/></clipPath></defs></symbol><symbol viewBox="0 0 30 30" id="target_1target" xmlns="http://www.w3.org/2000/svg"><g clip-path="url(#oclip0)"><path d="M14.906 9.845a5.271 5.271 0 00-5.273 5.273 5.271 5.271 0 005.273 5.272 5.271 5.271 0 005.272-5.272 5.271 5.271 0 00-5.272-5.273zm11.784 3.954A11.856 11.856 0 0016.224 3.334V.618h-2.637v2.715A11.856 11.856 0 003.121 13.8H.406v2.637H3.12a11.856 11.856 0 0010.466 10.466v2.716h2.637v-2.716A11.856 11.856 0 0026.69 16.436h2.716V13.8H26.69zM14.906 24.346c-5.095 0-9.228-4.133-9.228-9.227 0-5.095 4.133-9.228 9.228-9.228 5.094 0 9.227 4.133 9.227 9.228 0 5.094-4.133 9.227-9.227 9.227z"/></g><defs><clipPath id="oclip0"><path transform="translate(.406 .618)" d="M0 0h29v29H0z"/></clipPath></defs></symbol><symbol viewBox="0 0 327 328" id="team-circle" xmlns="http://www.w3.org/2000/svg"><path d="M56.024 273.024l-7.075-7.462-.762.721 7.076 7.462.761-.721zm-6.469-14.826l-.964-1.177-10.127 8.28-3.205-3.914-1.019.833 7.374 9.007 1.019-.834-3.205-3.914 10.127-8.281zm-14.62-10.207c-2.653 1.875-3.213 4.966-1.455 7.45s4.918 2.996 7.538 1.144 3.17-5.062 1.222-7.815c-.986-1.393-2.357-2.262-3.856-2.386l-.297 1.217c1.247.125 2.31.809 3.071 1.883 1.366 1.931 1.138 4.208-.614 5.648l-5.227-7.386c-.135.095-.28.173-.382.245zm-.43 6.726c-1.224-1.729-.906-3.843.717-5.217l4.432 6.261c-1.837 1.072-3.938.668-5.15-1.044zm-7.661-9.727c.869 1.469 2.145 2.578 3.497 3.045l.604-1.121c-1.123-.363-2.218-1.245-2.93-2.449-1.025-1.734-.691-3.15.903-4.091l.567-.335 1.747 2.956c1.58 2.673 3.33 2.882 4.764 2.035 1.612-.952 1.946-2.892.7-4.999-.91-1.54-2.144-2.292-3.435-2.294l1.452-.857-.711-1.204-5.774 3.41c-2.409 1.422-2.807 3.497-1.384 5.904zm8.745-4.568c.88 1.487.72 2.752-.361 3.39-.957.565-2.01.399-3.078-1.406l-1.727-2.921 1.523-.9c1.515-.226 2.806.421 3.643 1.837zm-18.98-15.712c.8 1.781 2.24 2.826 3.835 2.966-1.119 1.223-1.24 2.81-.507 4.442.742 1.651 2.009 2.615 3.503 2.778l-1.802.809.573 1.275 9.872-4.43-.598-1.331-5.18 2.324c-2.252 1.01-4.147.306-5.049-1.701-.809-1.801-.211-3.331 1.872-4.266l5.593-2.51-.598-1.331-5.18 2.324c-2.252 1.011-4.139.325-5.05-1.701-.8-1.782-.202-3.312 1.881-4.247l5.593-2.51-.598-1.331-5.724 2.568c-2.834 1.272-3.515 3.471-2.436 5.872zm-8.551-27.328c.468 1.896 1.697 3.181 3.243 3.604-1.32 1.004-1.723 2.544-1.294 4.28.434 1.757 1.509 2.931 2.95 3.359l-1.918.474.336 1.357 10.505-2.594-.35-1.418-5.513 1.362c-2.396.592-4.135-.44-4.663-2.576-.474-1.916.388-3.315 2.605-3.863l5.952-1.469-.35-1.418-5.513 1.362c-2.396.592-4.13-.42-4.663-2.576-.469-1.896.393-3.295 2.61-3.843l5.952-1.469-.35-1.418-6.092 1.505c-3.016.744-4.08 2.786-3.447 5.341zm2.557-19.184c-3.223.423-5.16 2.896-4.763 5.913.396 3.017 2.952 4.942 6.134 4.524 3.182-.417 5.167-3 4.728-6.344-.223-1.692-1.03-3.099-2.298-3.908l-.832.939c1.046.692 1.668 1.793 1.84 3.097.307 2.345-.957 4.252-3.18 4.71l-1.178-8.97c-.163.022-.329.023-.451.039zm-3.519 5.75c-.276-2.1.992-3.822 3.069-4.281l.999 7.604c-2.125.092-3.795-1.244-4.068-3.323zM4.493 161.51c.027 1.953.933 3.482 2.343 4.244-1.513.679-2.254 2.088-2.23 3.876.026 1.809.806 3.197 2.113 3.939l-1.975.028.02 1.398 10.82-.151-.02-1.46-5.678.08c-2.468.034-3.928-1.364-3.959-3.564-.027-1.974 1.129-3.141 3.412-3.173l6.13-.086-.02-1.459-5.678.079c-2.468.034-3.928-1.344-3.959-3.564-.027-1.953 1.13-3.121 3.413-3.153l6.13-.085-.02-1.46-6.274.088c-3.107.043-4.605 1.791-4.568 4.423zm1.117-14.874c-.19 1.716.382 3.269 1.672 4.323l-6.461-.718-.161 1.451 15.171 1.685.155-1.39-2.127-.236c1.55-.717 2.492-2.123 2.69-3.901.34-3.065-1.634-5.601-4.885-5.962-3.25-.361-5.713 1.682-6.054 4.748zm9.64 1.174c-.255 2.288-2.123 3.819-4.637 3.539-2.515-.279-4.001-2.182-3.747-4.47.253-2.269 2.122-3.819 4.637-3.54 2.515.279 3.999 2.202 3.746 4.471zm-1.354-18.312c-3.191-.619-5.812 1.114-6.391 4.102-.58 2.987 1.235 5.621 4.386 6.232 3.15.61 5.851-1.212 6.493-4.522.325-1.675.005-3.266-.942-4.434l-1.085.627c.772.988 1.013 2.228.763 3.52-.45 2.321-2.254 3.731-4.507 3.462l1.723-8.881c-.162-.031-.32-.083-.44-.106zm-5.16 4.34c.404-2.079 2.152-3.311 4.267-3.089l-1.46 7.529c-2.045-.585-3.206-2.381-2.806-4.44zm3.059-9.634l-2.047-.549-.362 1.351 10.452 2.8.378-1.41-5.325-1.427c-2.464-.66-3.498-2.363-2.912-4.548.026-.099.078-.213.11-.332l-1.371-.367c-.517 1.926-.138 3.454 1.077 4.482zm4.406-20.143l7.21 7.048-10.052.582-.531 1.426 11.813-.716.524-1.407-8.461-8.282-.503 1.349zm-.2-5.244a1.049 1.049 0 00-.549-1.409c-.508-.223-1.113.028-1.353.574-.24.546.003 1.169.511 1.392a1.057 1.057 0 001.391-.557zm11.774 5.982l.588-1.337-9.906-4.352-.588 1.336 9.906 4.353zM20.183 85.41l5.775 2.982c-1.658.162-2.996 1.137-3.79 2.671-1.416 2.74-.5 5.805 2.405 7.306 2.906 1.501 5.956.485 7.373-2.255.822-1.59.817-3.281-.075-4.737l1.9.982.643-1.242-13.56-7.005-.67 1.297zm10.668 10c-1.058 2.045-3.35 2.805-5.598 1.644-2.248-1.16-2.953-3.47-1.895-5.515 1.049-2.027 3.34-2.787 5.588-1.626 2.248 1.16 2.954 3.47 1.905 5.497zM36.997 77c-2.735-1.757-5.811-1.118-7.458 1.442-1.646 2.56-.938 5.679 1.762 7.413s5.883 1.043 7.708-1.794c.923-1.435 1.216-3.031.77-4.467l-1.241.18c.351 1.204.115 2.445-.597 3.552-1.28 1.99-3.477 2.63-5.47 1.546l4.895-7.61c-.138-.089-.266-.195-.37-.262zm-6.402 2.12c1.146-1.782 3.226-2.278 5.109-1.289l-4.15 6.451c-1.682-1.3-2.094-3.398-.96-5.162zm15.15-4.998c1.92-2.517 1.498-5.761-1.054-7.706-2.552-1.945-5.777-1.481-7.698 1.037-1.921 2.518-1.527 5.765 1.025 7.71 2.552 1.945 5.806 1.477 7.727-1.04zm-1.03-.785c-1.398 1.831-3.787 2.182-5.8.649-2.011-1.534-2.305-3.93-.908-5.76 1.397-1.832 3.774-2.166 5.786-.633 2.012 1.533 2.318 3.913.921 5.744zm4.699-11.603l7.117-7.422-.757-.726-7.117 7.422.757.726zm18.347-10.76l1.171-.972-8.363-10.056 3.892-3.233-.842-1.012-8.954 7.438.841 1.012 3.892-3.233 8.363 10.056zm10.201-14.558c-1.901-2.634-4.998-3.165-7.468-1.385-2.469 1.78-2.952 4.942-1.075 7.543 1.878 2.601 5.094 3.122 7.83 1.15 1.386-.999 2.243-2.377 2.353-3.876l-1.221-.286c-.114 1.248-.788 2.317-1.856 3.087-1.919 1.383-4.199 1.176-5.656-.562l7.341-5.292c-.096-.133-.175-.279-.248-.379zm-6.734-.368c1.72-1.239 3.837-.94 5.227.67l-6.224 4.485c-1.09-1.826-.704-3.928.998-5.155zm9.55-7.843c-1.46.887-2.553 2.176-3.004 3.533l1.129.59c.35-1.128 1.219-2.233 2.414-2.958 1.723-1.047 3.143-.73 4.105.851l.341.563-2.936 1.782c-2.655 1.612-2.843 3.363-1.977 4.786.972 1.599 2.917 1.91 5.01.639 1.53-.93 2.267-2.17 2.253-3.461l.876 1.44 1.195-.725-3.482-5.729c-1.453-2.39-3.533-2.762-5.924-1.31zm4.677 8.684c-1.477.897-2.744.752-3.396-.32-.577-.948-.424-2.004 1.37-3.093l2.9-1.761.92 1.511c.244 1.512-.387 2.81-1.794 3.663zm15.491-19.159c-1.773.821-2.8 2.272-2.921 3.869-1.238-1.104-2.827-1.206-4.451-.454-1.642.761-2.592 2.04-2.737 3.534l-.83-1.79-1.27.588 4.551 9.811 1.325-.614-2.388-5.148c-1.038-2.238-.356-4.14 1.641-5.066 1.792-.83 3.33-.251 4.29 1.82l2.579 5.558 1.325-.614-2.388-5.148c-1.038-2.239-.374-4.132 1.642-5.066 1.773-.822 3.311-.243 4.271 1.828l2.579 5.559 1.325-.614-2.639-5.69c-1.306-2.816-3.514-3.47-5.904-2.363zm27.239-8.876c-1.892.491-3.163 1.735-3.567 3.284-1.02-1.307-2.566-1.691-4.298-1.241-1.752.455-2.915 1.543-3.325 2.988l-.497-1.91-1.354.351 2.722 10.467 1.414-.367-1.429-5.492c-.621-2.388.391-4.138 2.521-4.691 1.912-.497 3.322.348 3.896 2.556l1.543 5.93 1.413-.367-1.428-5.492c-.621-2.388.371-4.132 2.521-4.691 1.891-.492 3.301.353 3.876 2.562l1.542 5.93 1.414-.367-1.579-6.07c-.781-3.004-2.837-4.042-5.385-3.38zm19.239 2.311c-.455-3.217-2.949-5.128-5.963-4.702-3.015.426-4.916 3-4.466 6.176.449 3.175 3.053 5.133 6.394 4.66 1.691-.238 3.091-1.06 3.887-2.334l-.947-.822c-.682 1.052-1.777 1.684-3.081 1.869-2.342.33-4.264-.914-4.743-3.13l8.962-1.267c-.023-.163-.026-.328-.043-.45zm-5.788-3.46c2.099-.297 3.834.953 4.314 3.024l-7.598 1.074c-.114-2.123 1.207-3.804 3.284-4.098zm22.348-2.925c-1.953.058-3.469.988-4.209 2.409-.703-1.501-2.124-2.22-3.913-2.166-1.81.054-3.185.856-3.907 2.174l-.06-1.973-1.398.042.325 10.81 1.46-.044-.171-5.672c-.074-2.466 1.302-3.947 3.502-4.013 1.974-.06 3.161 1.078 3.229 3.359l.184 6.124 1.46-.044-.17-5.672c-.074-2.466 1.281-3.947 3.502-4.013 1.953-.059 3.14 1.078 3.209 3.36l.183 6.124 1.46-.044-.188-6.268c-.093-3.104-1.866-4.573-4.498-4.494zm14.908.88c-1.72-.16-3.264.439-4.295 1.747l.605-6.47-1.455-.135-1.42 15.19 1.393.13.199-2.13c.745 1.536 2.167 2.454 3.949 2.62 3.073.288 5.575-1.73 5.88-4.985.304-3.255-1.783-5.68-4.856-5.967zm-1.006 9.653c-2.294-.214-3.857-2.054-3.622-4.572.236-2.517 2.113-4.035 4.407-3.821 2.274.212 3.858 2.054 3.623 4.572-.236 2.518-2.134 4.034-4.408 3.821zm18.295-1.391c.587-3.195-1.173-5.797-4.167-6.346-2.995-.55-5.613 1.29-6.193 4.445-.579 3.154 1.271 5.835 4.589 6.444 1.679.308 3.268-.027 4.427-.985l-.638-1.079c-.981.782-2.219 1.035-3.514.798-2.327-.428-3.756-2.216-3.509-4.47l8.903 1.634c.03-.161.08-.32.102-.44zm-4.394-5.113c2.084.383 3.334 2.117 3.133 4.234l-7.547-1.386c.565-2.05 2.35-3.227 4.414-2.848zm9.675 2.952l.529-2.05-1.355-.35-2.701 10.473 1.415.365 1.376-5.336c.636-2.469 2.331-3.519 4.522-2.954.099.025.214.076.333.107l.355-1.374c-1.933-.498-3.457-.105-4.474 1.12zm20.203 4.195l-6.987 7.268-.673-10.04-1.432-.518.824 11.8 1.412.51 8.21-8.53-1.354-.49zm5.202-.361a1.05 1.05 0 001.403-.567c.216-.511-.043-1.112-.592-1.345-.549-.233-1.169.018-1.386.53-.225.53.026 1.15.575 1.382zm-5.828 11.845l1.344.57 4.224-9.957-1.345-.57-4.223 9.957zm19.325-7.771l-2.924 5.802c-.179-1.655-1.169-2.982-2.712-3.76-2.756-1.386-5.814-.439-7.285 2.481s-.422 5.957 2.334 7.344c1.599.805 3.292.782 4.739-.124l-.962 1.91 1.249.629 6.866-13.626-1.305-.656zm-9.893 10.766c-2.058-1.036-2.843-3.318-1.705-5.577s3.44-2.988 5.498-1.952c2.04 1.027 2.824 3.31 1.686 5.568-1.138 2.259-3.44 2.987-5.479 1.96zm18.54 5.794c1.711-2.762 1.02-5.825-1.568-7.428-2.589-1.602-5.697-.841-7.387 1.885-1.69 2.727-.944 5.897 1.924 7.673 1.452.898 3.054 1.164 4.482.694l-.201-1.237c-1.198.37-2.444.156-3.563-.537-2.012-1.245-2.69-3.43-1.639-5.44l7.696 4.764c.087-.14.191-.27.256-.374zm-2.229-6.361c1.802 1.115 2.334 3.185 1.375 5.083l-6.523-4.038c1.273-1.703 3.364-2.15 5.148-1.045zm5.099 15.266c2.534 1.9 5.776 1.452 7.702-1.114 1.926-2.566 1.436-5.786-1.099-7.686-2.534-1.9-5.78-1.48-7.706 1.086-1.926 2.566-1.432 5.814 1.103 7.714zm.777-1.036c-1.843-1.382-2.213-3.767-.695-5.79 1.518-2.023 3.913-2.335 5.756-.954 1.843 1.382 2.197 3.755.679 5.778-1.518 2.023-3.896 2.348-5.74.966zm11.749 4.42l7.526 7.007.715-.768-7.526-7.006-.715.767zm10.989 18.225l.992 1.154 9.927-8.518 3.297 3.837.998-.857-7.585-8.83-.999.858 3.297 3.837-9.927 8.519zm14.595 10.111c2.616-1.928 3.114-5.029 1.307-7.478s-4.976-2.898-7.559-.994c-2.582 1.904-3.069 5.124-1.067 7.837 1.014 1.374 2.402 2.216 3.903 2.31l.273-1.223c-1.25-.1-2.327-.763-3.108-1.822-1.404-1.903-1.221-4.184.502-5.659l5.373 7.28c.132-.097.277-.178.376-.251zm.297-6.733c1.258 1.704.982 3.824-.614 5.23l-4.554-6.173c1.815-1.108 3.923-.745 5.168.943zm8.047 9.354c-.904-1.448-2.208-2.525-3.57-2.96l-.577 1.135c1.132.336 2.248 1.191 2.989 2.377 1.067 1.71.767 3.133-.803 4.112l-.559.349-1.819-2.913c-1.645-2.634-3.398-2.8-4.811-1.919-1.589.991-1.875 2.94-.579 5.015.947 1.517 2.199 2.24 3.49 2.21l-1.431.892.74 1.187 5.69-3.55c2.373-1.48 2.721-3.563 1.24-5.935zm-8.632 4.778c-.915-1.465-.786-2.733.279-3.397.942-.588 2-.448 3.111 1.33l1.797 2.879-1.501.936c-1.509.263-2.815-.353-3.686-1.748zm19.363 15.267c-.842-1.763-2.306-2.773-3.905-2.875 1.089-1.25 1.173-2.839.401-4.453-.781-1.632-2.071-2.565-3.569-2.693l1.782-.851-.603-1.262-9.763 4.665.63 1.317 5.122-2.448c2.228-1.064 4.139-.405 5.089 1.58.851 1.78.29 3.325-1.77 4.31l-5.531 2.642.63 1.317 5.123-2.447c2.227-1.065 4.13-.424 5.088 1.58.843 1.762.282 3.306-1.779 4.29l-5.531 2.643.63 1.317 5.661-2.705c2.803-1.339 3.431-3.553 2.295-5.928zm9.072 27.145c-.511-1.886-1.768-3.143-3.323-3.532 1.297-1.032 1.666-2.581 1.199-4.307-.474-1.747-1.574-2.897-3.024-3.293l1.906-.516-.366-1.349-10.444 2.827.381 1.409 5.481-1.484c2.383-.645 4.144.349 4.719 2.472.517 1.905-.314 3.323-2.518 3.919l-5.918 1.602.382 1.409 5.481-1.483c2.383-.645 4.138.328 4.719 2.471.511 1.885-.32 3.303-2.524 3.9l-5.917 1.601.382 1.409 6.056-1.639c2.999-.811 4.016-2.876 3.328-5.416zm-1.947 19.222c3.214-.487 5.101-2.997 4.645-6.006-.456-3.009-3.05-4.882-6.223-4.402-3.173.481-5.106 3.102-4.601 6.436.256 1.687 1.091 3.079 2.375 3.862l.813-.955c-1.059-.672-1.703-1.759-1.9-3.06-.354-2.338.872-4.27 3.084-4.772l1.356 8.944c.163-.024.329-.029.451-.047zm3.404-5.818c.318 2.094-.916 3.84-2.983 4.34l-1.15-7.582c2.123-.134 3.819 1.168 4.133 3.242zm3.12 22.321c-.075-1.952-1.018-3.459-2.446-4.186 1.496-.716 2.203-2.142 2.134-3.929-.069-1.808-.884-3.176-2.208-3.887l1.973-.075-.053-1.397-10.813.415.056 1.458 5.674-.217c2.466-.095 3.96 1.267 4.044 3.466.076 1.972-1.051 3.167-3.333 3.255l-6.126.235.056 1.459 5.674-.218c2.467-.095 3.959 1.247 4.045 3.466.075 1.952-1.053 3.148-3.335 3.235l-6.126.235.056 1.459 6.27-.241c3.104-.119 4.559-1.903 4.458-4.533zm-.63 14.837c.139-1.722-.479-3.257-1.8-4.272l6.48.526.118-1.455-15.215-1.234-.113 1.393 2.132.173c-1.527.763-2.428 2.196-2.573 3.979-.249 3.074 1.799 5.55 5.06 5.815 3.26.264 5.661-1.851 5.911-4.925zm-9.67-.888c.186-2.295 2.007-3.88 4.529-3.675 2.522.204 4.064 2.062 3.878 4.357-.185 2.275-2.008 3.88-4.53 3.676-2.522-.205-4.062-2.083-3.877-4.358zm1.691 18.312c3.204.546 5.785-1.246 6.296-4.246.511-3-1.363-5.592-4.527-6.131-3.163-.539-5.822 1.344-6.388 4.668-.287 1.683.069 3.266 1.042 4.412l1.071-.652c-.794-.97-1.064-2.204-.843-3.501.398-2.331 2.168-3.782 4.427-3.564l-1.521 8.918c.163.028.321.076.443.096zm5.059-4.457c-.356 2.088-2.075 3.359-4.195 3.186l1.289-7.56c2.057.538 3.258 2.307 2.906 4.374zm-2.969 9.608l2.062.489.323-1.361-10.529-2.495-.337 1.421 5.364 1.271c2.483.588 3.566 2.261 3.044 4.461-.024.1-.073.216-.101.336l1.381.327c.46-1.941.038-3.456-1.207-4.449zm-3.9 20.311l-7.355-6.896 10.036-.792.502-1.437-11.796.963-.495 1.418 8.633 8.103.475-1.359zm.428 5.219a1.05 1.05 0 00.583 1.396c.514.211 1.112-.054 1.339-.606.227-.551-.031-1.169-.545-1.38a1.059 1.059 0 00-1.377.59zm-11.914-5.696l-.556 1.35 10.008 4.113.556-1.35-10.008-4.113zm7.994 19.217L302.963 236c1.654-.199 2.97-1.204 3.729-2.756 1.354-2.771.37-5.814-2.569-7.25-2.939-1.435-5.965-.35-7.32 2.421-.786 1.608-.743 3.299.181 4.734l-1.922-.938-.614 1.256 13.715 6.697.641-1.311zm-10.891-9.758c1.012-2.069 3.286-2.881 5.559-1.771 2.274 1.111 3.031 3.403 2.02 5.472-1.003 2.05-3.277 2.862-5.551 1.752-2.273-1.111-3.03-3.403-2.028-5.453zm-5.564 18.595c2.784 1.677 5.841.949 7.412-1.657 1.571-2.607.773-5.704-1.976-7.36-2.749-1.655-5.912-.871-7.653 2.017-.881 1.462-1.127 3.066-.64 4.488l1.236-.216c-.386-1.193-.186-2.441.493-3.568 1.221-2.025 3.399-2.73 5.422-1.704l-4.671 7.749c.141.085.271.188.377.251zm6.337-2.305c-1.093 1.814-3.158 2.371-5.069 1.437l3.96-6.569c1.72 1.251 2.192 3.336 1.109 5.132zm-15.172 5.314c-1.865 2.559-1.372 5.793 1.223 7.681 2.594 1.889 5.808 1.354 7.673-1.205 1.866-2.559 1.401-5.797-1.193-7.686-2.594-1.888-5.838-1.349-7.703 1.21zm1.048.762c1.356-1.861 3.737-2.264 5.783-.775 2.045 1.489 2.391 3.877 1.034 5.738-1.356 1.862-3.725 2.249-5.77.76-2.046-1.489-2.404-3.861-1.047-5.723zm-4.292 11.797l-6.936 7.591.775.707 6.936-7.591-.775-.707zm-18.14 11.175l-1.143 1.005 8.642 9.818-3.8 3.341.87.987 8.742-7.686-.869-.988-3.8 3.341-8.642-9.818zm-9.894 14.765c1.95 2.599 5.057 3.072 7.492 1.246 2.436-1.825 2.86-4.996.934-7.562-1.925-2.566-5.151-3.026-7.85-1.003-1.366 1.024-2.197 2.418-2.279 3.919l1.226.263c.09-1.25.744-2.332 1.798-3.121 1.892-1.419 4.176-1.254 5.665.456l-7.241 5.428c.099.132.181.276.255.374zm6.739.243c-1.695 1.271-3.818 1.012-5.237-.572l6.139-4.601c1.123 1.805.777 3.915-.902 5.173zm-9.304 8.066c1.437-.921 2.5-2.236 2.918-3.603l-1.142-.562c-.323 1.134-1.165 2.26-2.343 3.014-1.698 1.087-3.125.805-4.124-.753l-.355-.554 2.893-1.853c2.615-1.675 2.761-3.429 1.862-4.831-1.01-1.575-2.963-1.839-5.024-.519-1.507.965-2.214 2.224-2.169 3.514l-.91-1.42-1.178.755 3.618 5.643c1.509 2.355 3.598 2.678 5.954 1.169zm-4.884-8.569c1.455-.932 2.726-.818 3.403.238.599.935.471 1.993-1.295 3.125l-2.858 1.83-.955-1.489c-.281-1.505.32-2.817 1.705-3.704zm-15.026 19.528c1.753-.864 2.745-2.339 2.828-3.939 1.263 1.074 2.855 1.138 4.46.347 1.624-.801 2.542-2.101 2.651-3.599l.873 1.77 1.255-.619-4.786-9.699-1.31.646 2.511 5.089c1.092 2.213.456 4.131-1.518 5.104-1.771.873-3.323.331-4.333-1.715l-2.712-5.496-1.31.646 2.512 5.089c1.091 2.213.474 4.122-1.519 5.105-1.753.863-3.305.322-4.315-1.725l-2.711-5.495-1.31.645 2.775 5.625c1.374 2.784 3.597 3.385 5.959 2.221zm-27.011 9.533c1.879-.537 3.119-1.811 3.486-3.37 1.051 1.281 2.606 1.628 4.327 1.137 1.74-.498 2.876-1.614 3.251-3.068l.543 1.897 1.345-.384-2.975-10.398-1.404.402 1.561 5.455c.679 2.373-.29 4.146-2.407 4.751-1.898.543-3.328-.267-3.956-2.461l-1.686-5.891-1.404.401 1.561 5.456c.679 2.372-.27 4.14-2.407 4.751-1.879.537-3.309-.273-3.937-2.467l-1.685-5.891-1.405.401 1.726 6.029c.854 2.985 2.934 3.973 5.466 3.25zm-19.294-1.849c.532 3.205 3.071 5.055 6.075 4.557 3.003-.499 4.841-3.117 4.315-6.281-.525-3.164-3.176-5.059-6.504-4.506-1.685.279-3.065 1.134-3.83 2.428l.967.798c.656-1.068 1.736-1.726 3.035-1.942 2.333-.387 4.284.81 4.817 3.015l-8.929 1.482c.027.162.033.328.054.449zm5.869 3.32c-2.09.347-3.855-.861-4.385-2.92l7.57-1.256c.164 2.119-1.115 3.832-3.185 4.176zm-22.313 3.405c1.952-.099 3.448-1.06 4.158-2.496.734 1.486 2.17 2.175 3.957 2.085 1.808-.092 3.167-.922 3.862-2.255l.1 1.972 1.397-.071-.548-10.801-1.459.074.288 5.667c.125 2.464-1.22 3.974-3.419 4.085-1.972.1-3.182-1.012-3.297-3.292l-.311-6.119-1.458.074.287 5.667c.125 2.464-1.199 3.973-3.418 4.085-1.952.099-3.162-1.013-3.278-3.293l-.31-6.119-1.459.074.318 6.263c.157 3.101 1.96 4.533 4.59 4.4zm-14.868-.447c1.724.119 3.253-.518 4.252-1.851l-.446 6.482 1.457.1 1.049-15.219-1.396-.097-.147 2.134c-.782-1.517-2.227-2.4-4.012-2.523-3.079-.212-5.532 1.866-5.756 5.127-.225 3.261 1.921 5.635 4.999 5.847zm.77-9.675c2.299.159 3.907 1.959 3.733 4.482-.174 2.523-2.014 4.086-4.312 3.928-2.278-.157-3.907-1.959-3.733-4.482.174-2.523 2.034-4.084 4.312-3.928zm-18.3 1.921c-.518 3.207 1.297 5.77 4.303 6.256 3.005.485 5.583-1.41 6.095-4.576.512-3.167-1.394-5.807-4.725-6.345-1.686-.273-3.267.097-4.405 1.079l.661 1.065c.964-.802 2.197-1.082 3.496-.872 2.336.377 3.802 2.134 3.604 4.393l-8.936-1.443c-.026.162-.073.321-.093.443zm4.503 5.018c-2.092-.338-3.379-2.046-3.223-4.166l7.575 1.224c-.521 2.061-2.281 3.276-4.352 2.942zm-9.664-2.839l-.473 2.064 1.364.312 2.414-10.542-1.424-.326-1.23 5.371c-.569 2.486-2.234 3.581-4.439 3.077-.101-.023-.217-.071-.337-.098l-.316 1.383c1.945.445 3.458.01 4.441-1.241zm-20.314-3.69l6.812-7.432.912 10.021 1.444.483-1.104-11.776-1.424-.478-8.005 8.724 1.365.458zm-5.223.491a1.05 1.05 0 00-1.389.599c-.205.516.067 1.111.622 1.331.554.22 1.169-.045 1.374-.561a1.058 1.058 0 00-.607-1.369zm5.555-11.976l-1.357-.538-3.994 10.051 1.357.539 3.994-10.052zM90.353 309.9l2.782-5.872c.22 1.651 1.241 2.953 2.803 3.692 2.79 1.32 5.822.299 7.222-2.656 1.4-2.954.278-5.965-2.511-7.285-1.618-.766-3.31-.702-4.734.239l.915-1.932-1.264-.599-6.533 13.788 1.32.625zm9.63-11.003c2.082.985 2.922 3.248 1.839 5.534-1.083 2.285-3.367 3.07-5.45 2.084-2.063-.976-2.903-3.239-1.82-5.525 1.083-2.285 3.367-3.07 5.43-2.093zm-18.661-5.4c-1.658 2.794-.908 5.844 1.71 7.396 2.62 1.552 5.713.733 7.35-2.026 1.637-2.759.83-5.914-2.072-7.634-1.468-.871-3.075-1.106-4.494-.608l.225 1.233c1.19-.394 2.44-.203 3.573.468 2.035 1.206 2.755 3.378 1.743 5.407l-7.786-4.614c-.084.141-.186.272-.249.378zm2.35 6.318c-1.822-1.081-2.393-3.141-1.472-5.056l6.6 3.911c-1.24 1.728-3.322 2.214-5.127 1.145zm-5.477-15.071c-2.589-1.826-5.817-1.284-7.667 1.336-1.85 2.621-1.268 5.825 1.32 7.651 2.59 1.826 5.822 1.312 7.672-1.308 1.85-2.621 1.263-5.854-1.325-7.679zm-.748 1.058c1.883 1.328 2.322 3.701.863 5.767-1.459 2.066-3.843 2.448-5.726 1.12-1.882-1.327-2.305-3.689-.846-5.755s3.827-2.46 5.71-1.132z"/></symbol><symbol viewBox="0 0 23 26" id="video-arrow" xmlns="http://www.w3.org/2000/svg"><path d="M22.391 13.015L.595 25.599V.43l21.796 12.584z"/></symbol></svg>