<svg width="26" height="26" viewBox="0 0 26 26" fill="none" xmlns="http://www.w3.org/2000/svg">
<path d="M8.32011 8.1165L11.818 4.61887V19.099C11.818 19.7517 12.3471 20.2808 12.9998 20.2808C13.6525 20.2808 14.1816 19.7517 14.1816 19.099V4.61895L17.6792 8.1165C17.9099 8.34727 18.2124 8.46269 18.5148 8.46269C18.8173 8.46269 19.1197 8.34735 19.3505 8.1165C19.812 7.65496 19.812 6.90671 19.3505 6.44517L13.8357 0.930336C13.808 0.902681 13.7789 0.876524 13.7487 0.851706C13.7357 0.84099 13.7219 0.831693 13.7086 0.821687C13.6911 0.80853 13.674 0.795136 13.6558 0.782924C13.6395 0.771972 13.6225 0.762518 13.6057 0.752512C13.5894 0.742663 13.5734 0.7325 13.5566 0.723439C13.5395 0.7143 13.522 0.706657 13.5045 0.698384C13.4869 0.690112 13.4698 0.681366 13.4517 0.673881C13.4349 0.666948 13.4177 0.661275 13.4006 0.65513C13.3814 0.648196 13.3624 0.64079 13.3426 0.634803C13.3256 0.629681 13.3083 0.625978 13.2912 0.621645C13.2711 0.616524 13.251 0.610851 13.2306 0.606754C13.2109 0.602893 13.1909 0.600609 13.1711 0.597693C13.1529 0.595015 13.1348 0.591627 13.1163 0.589815C13.0799 0.586269 13.0434 0.584536 13.0069 0.5843C13.0045 0.5843 13.0022 0.583984 12.9999 0.583984C12.9976 0.583984 12.9952 0.5843 12.9929 0.5843C12.9564 0.584457 12.9198 0.586269 12.8833 0.589815C12.8653 0.591627 12.8477 0.594936 12.8298 0.597536C12.8094 0.600451 12.7891 0.602815 12.769 0.606833C12.749 0.610772 12.7296 0.616287 12.71 0.621251C12.6922 0.625742 12.6744 0.629681 12.6567 0.63496C12.6378 0.640712 12.6192 0.647881 12.6007 0.654578C12.5829 0.66096 12.565 0.66679 12.5475 0.674039C12.5302 0.681209 12.5137 0.689639 12.4968 0.697597C12.4787 0.706106 12.4604 0.714221 12.4426 0.723675C12.4265 0.732263 12.4114 0.742033 12.3957 0.75133C12.3782 0.76173 12.3605 0.771657 12.3434 0.783081C12.3263 0.794506 12.3103 0.807269 12.2939 0.819481C12.2794 0.830275 12.2646 0.840281 12.2506 0.851863C12.2218 0.875421 12.1943 0.900396 12.1679 0.926475C12.1667 0.927736 12.1653 0.92876 12.164 0.930021L6.64886 6.44509C6.1874 6.90663 6.18732 7.65488 6.64886 8.11642C7.11032 8.57804 7.85865 8.57788 8.32011 8.1165Z" fill="#E7B900"/>
<path d="M24.8182 12.4021C24.1655 12.4021 23.6364 12.9312 23.6364 13.5839V22.6445H2.36364V13.5839C2.36364 12.9312 1.8345 12.4021 1.18182 12.4021C0.529139 12.4021 0 12.9312 0 13.5839V23.8263C0 24.479 0.529139 25.0082 1.18182 25.0082H24.8182C25.4709 25.0082 26 24.479 26 23.8263V13.5839C26 12.9312 25.4709 12.4021 24.8182 12.4021Z" fill="#E7B900"/>
</svg>
