<svg width="188" height="33" viewBox="0 0 188 33" fill="none" xmlns="http://www.w3.org/2000/svg">
<path fill-rule="evenodd" clip-rule="evenodd" d="M0.865723 0.36377H26.5198L38.3418 16.4731L26.5198 32.2439H0.865723V11.6839H9.08592L9.08582 24.2572H21.6533L27.7316 16.3922L21.6534 8.35042C14.7242 8.35033 7.7949 8.35033 0.865723 8.35033V0.36377Z" fill="#1A1A1A"/>
<path d="M182.077 8.99525V25.6334H178.914V8.99525H173.734V6.32129H187.23V8.99525H182.077Z" fill="#1A1A1A"/>
<path d="M168.318 25.6334V6.32129H171.481V25.6334H168.318Z" fill="#1A1A1A"/>
<path d="M163.76 24.8594C163.76 27.3037 163.27 29.0233 162.284 30.0228C161.298 31.022 159.635 31.5218 157.299 31.5218C155.559 31.5218 154.168 31.1571 153.132 30.4278C152.092 29.703 151.565 28.7352 151.546 27.5243L154.65 27.5108C154.695 28.051 154.95 28.4651 155.409 28.7488C155.872 29.0323 156.522 29.1719 157.354 29.1719C158.589 29.1719 159.475 28.9018 160.016 28.3661C160.562 27.8303 160.834 26.9301 160.843 25.674L160.871 24.0174C160.357 24.7332 159.753 25.269 159.067 25.6202C158.376 25.9712 157.59 26.1467 156.699 26.1467C154.918 26.1467 153.509 25.5435 152.487 24.3326C151.46 23.1263 150.947 21.4696 150.947 19.3673C150.947 17.373 151.469 15.7614 152.519 14.537C153.568 13.3081 154.936 12.6958 156.622 12.6958C157.653 12.6958 158.535 12.9074 159.266 13.3351C159.998 13.7582 160.534 14.3705 160.871 15.1672V13.1279H163.76V24.8594ZM160.952 19.3403C160.952 18.0483 160.648 17.04 160.039 16.3196C159.43 15.5949 158.58 15.2347 157.49 15.2347C156.395 15.2347 155.536 15.6085 154.913 16.3512C154.287 17.0938 153.973 18.1293 153.973 19.4483C153.973 20.7763 154.273 21.8026 154.877 22.523C155.482 23.2478 156.336 23.6078 157.435 23.6078C158.476 23.6078 159.321 23.2161 159.971 22.4329C160.625 21.6496 160.952 20.6187 160.952 19.3403Z" fill="#1A1A1A"/>
<path d="M135.983 25.6336V13.1279H138.7V15.1808C139.277 14.3164 139.954 13.6862 140.736 13.29C141.517 12.8938 142.467 12.6958 143.589 12.6958C144.53 12.6958 145.33 12.8444 145.993 13.137C146.652 13.4341 147.17 13.8707 147.542 14.4515C147.765 14.7936 147.924 15.1942 148.024 15.6535C148.12 16.1081 148.17 16.9094 148.17 18.0528V25.6336H145.253V19.2141C145.253 17.5711 145.052 16.4772 144.648 15.937C144.244 15.3968 143.526 15.1267 142.494 15.1267C141.822 15.1267 141.218 15.2482 140.69 15.4959C140.163 15.7434 139.745 16.0901 139.445 16.5358C139.232 16.8374 139.082 17.22 139 17.6926C138.914 18.1608 138.873 18.9081 138.873 19.9389V25.6336H135.983Z" fill="#1A1A1A"/>
<path d="M128.972 25.6336V13.1279H131.862V25.6336H128.972Z" fill="#1A1A1A"/>
<path d="M128.59 7.72607C128.59 7.24443 128.772 6.82569 129.131 6.47014C129.49 6.11896 129.917 5.94336 130.417 5.94336C130.93 5.94336 131.362 6.11449 131.703 6.45208C132.044 6.78968 132.216 7.21735 132.216 7.72607C132.216 8.23926 132.044 8.66693 131.698 9.01356C131.348 9.36027 130.921 9.53567 130.417 9.53567C129.917 9.53567 129.49 9.35571 129.131 9.00006C128.772 8.64451 128.59 8.2213 128.59 7.72607Z" fill="#1A1A1A"/>
<path d="M112.81 25.6336V13.1279H115.527V15.1808C116.104 14.3164 116.781 13.6862 117.562 13.29C118.344 12.8938 119.294 12.6958 120.416 12.6958C121.357 12.6958 122.156 12.8444 122.82 13.137C123.478 13.4341 123.997 13.8707 124.369 14.4515C124.592 14.7936 124.751 15.1942 124.851 15.6535C124.946 16.1081 124.996 16.9094 124.996 18.0528V25.6336H122.079V19.2141C122.079 17.5711 121.879 16.4772 121.475 15.937C121.07 15.3968 120.352 15.1267 119.321 15.1267C118.648 15.1267 118.044 15.2482 117.517 15.4959C116.99 15.7434 116.572 16.0901 116.272 16.5358C116.058 16.8374 115.909 17.22 115.827 17.6926C115.74 18.1608 115.699 18.9081 115.699 19.9389V25.6336H112.81Z" fill="#1A1A1A"/>
<path d="M108.829 24.8594C108.829 27.3037 108.338 29.0233 107.352 30.0228C106.366 31.022 104.703 31.5218 102.368 31.5218C100.627 31.5218 99.237 31.1571 98.201 30.4278C97.1604 29.703 96.6333 28.7352 96.6152 27.5243L99.7185 27.5108C99.764 28.051 100.018 28.4651 100.477 28.7488C100.941 29.0323 101.591 29.1719 102.422 29.1719C103.658 29.1719 104.544 28.9018 105.085 28.3661C105.63 27.8303 105.903 26.9301 105.912 25.674L105.939 24.0174C105.426 24.7332 104.821 25.269 104.135 25.6202C103.445 25.9712 102.658 26.1467 101.768 26.1467C99.9867 26.1467 98.5781 25.5435 97.5557 24.3326C96.5289 23.1263 96.0154 21.4696 96.0154 19.3673C96.0154 17.373 96.538 15.7614 97.5876 14.537C98.6372 13.3081 100.005 12.6958 101.691 12.6958C102.722 12.6958 103.604 12.9074 104.335 13.3351C105.067 13.7582 105.603 14.3705 105.939 15.1672V13.1279H108.829V24.8594ZM106.021 19.3403C106.021 18.0483 105.717 17.04 105.108 16.3196C104.499 15.5949 103.649 15.2347 102.559 15.2347C101.463 15.2347 100.605 15.6085 99.9821 16.3512C99.3552 17.0938 99.0415 18.1293 99.0415 19.4483C99.0415 20.7763 99.3414 21.8026 99.9458 22.523C100.55 23.2478 101.404 23.6078 102.504 23.6078C103.545 23.6078 104.39 23.2161 105.039 22.4329C105.694 21.6496 106.021 20.6187 106.021 19.3403Z" fill="#1A1A1A"/>
<path d="M90.0669 25.6336V13.1279H92.9568V25.6336H90.0669Z" fill="#1A1A1A"/>
<path d="M89.6853 7.72607C89.6853 7.24443 89.8671 6.82569 90.2259 6.47014C90.5849 6.11896 91.0121 5.94336 91.5119 5.94336C92.0253 5.94336 92.457 6.11449 92.7978 6.45208C93.1385 6.78968 93.3113 7.21735 93.3113 7.72607C93.3113 8.23926 93.1385 8.66693 92.7933 9.01356C92.4433 9.36027 92.0163 9.53567 91.5119 9.53567C91.0121 9.53567 90.5849 9.35571 90.2259 9.00006C89.8671 8.64451 89.6853 8.2213 89.6853 7.72607Z" fill="#1A1A1A"/>
<path d="M76.8762 23.3649L79.2753 22.0684C79.4526 22.6941 79.7797 23.1712 80.2613 23.4954C80.7385 23.8241 81.3564 23.9861 82.1062 23.9861C82.756 23.9861 83.2649 23.8376 83.6329 23.545C84.0008 23.2479 84.1827 22.8472 84.1827 22.3339C84.1827 21.6588 83.5283 21.0781 82.2152 20.5918C81.7744 20.4343 81.4292 20.3037 81.1929 20.1958C79.8434 19.6419 78.8981 19.0793 78.362 18.5075C77.8259 17.9403 77.5578 17.2426 77.5578 16.4278C77.5578 15.3115 77.9986 14.4066 78.88 13.7088C79.7661 13.0155 80.9338 12.6689 82.3879 12.6689C83.3648 12.6689 84.2009 12.8489 84.8961 13.2046C85.5913 13.5603 86.1002 14.0645 86.4183 14.7261L84.369 16.1261C84.2191 15.7301 83.9556 15.4149 83.5783 15.1809C83.2012 14.9468 82.765 14.8297 82.2697 14.8297C81.72 14.8297 81.2792 14.9603 80.9475 15.2169C80.6157 15.478 80.4476 15.8245 80.4476 16.2568C80.4476 16.905 81.1929 17.4992 82.6787 18.0349C83.1512 18.2014 83.5148 18.341 83.7692 18.4446C84.9325 18.9037 85.7639 19.4169 86.2684 19.9931C86.7681 20.5694 87.0181 21.2896 87.0181 22.1495C87.0181 23.4009 86.5592 24.3778 85.6458 25.0845C84.7324 25.7913 83.4738 26.1469 81.8653 26.1469C80.6339 26.1469 79.6071 25.9172 78.7937 25.4627C77.9758 25.0034 77.3396 24.3056 76.8762 23.3649Z" fill="#1A1A1A"/>
<path d="M75.4531 19.7994H65.3659C65.4386 20.9699 65.7884 21.8837 66.4201 22.541C67.047 23.1982 67.8877 23.5268 68.9374 23.5268C69.8689 23.5268 70.6457 23.3333 71.2637 22.9461C71.8862 22.559 72.427 21.9331 72.8904 21.069L75.317 22.4149C74.608 23.6755 73.7311 24.6073 72.6814 25.2239C71.6363 25.8406 70.405 26.1467 68.9964 26.1467C66.9698 26.1467 65.3614 25.5344 64.1617 24.3145C62.9667 23.0901 62.3669 21.4606 62.3669 19.4214C62.3669 17.4586 62.9849 15.8515 64.2253 14.5865C65.4614 13.326 67.0516 12.6958 68.9964 12.6958C71.0275 12.6958 72.6134 13.2721 73.7493 14.4245C74.8853 15.5723 75.4531 17.1885 75.4531 19.2592V19.7994ZM72.4542 17.8817C72.3407 16.9859 71.9953 16.3016 71.4184 15.8334C70.8412 15.3607 70.0505 15.1267 69.051 15.1267C68.1013 15.1267 67.3379 15.3564 66.7608 15.811C66.1884 16.2701 65.7839 16.9589 65.5521 17.8817H72.4542Z" fill="#1A1A1A"/>
<path d="M56.4238 5.18701H59.3136V25.6336H56.4238V24.0175C55.9103 24.7332 55.306 25.269 54.6197 25.6202C53.9291 25.9712 53.143 26.1468 52.2524 26.1468C50.4712 26.1468 49.0626 25.5435 48.0402 24.3326C47.0134 23.1263 46.4999 21.4697 46.4999 19.3673C46.4999 17.373 47.0225 15.7614 48.0722 14.5371C49.1217 13.3081 50.4894 12.6958 52.1752 12.6958C53.2067 12.6958 54.0881 12.9074 54.8197 13.3351C55.5513 13.7582 56.0874 14.3705 56.4238 15.1672V5.18701ZM56.5055 19.3403C56.5055 18.0483 56.2011 17.04 55.5922 16.3197C54.9833 15.5949 54.1336 15.2348 53.0431 15.2348C51.948 15.2348 51.0892 15.6085 50.4666 16.3512C49.8397 17.0939 49.526 18.1294 49.526 19.4483C49.526 20.7763 49.8259 21.8026 50.4304 22.523C51.0347 23.2478 51.8889 23.6078 52.9886 23.6078C54.0336 23.6078 54.8834 23.2162 55.5331 22.4375C56.1783 21.6587 56.5055 20.6277 56.5055 19.3403Z" fill="#1A1A1A"/>
</svg>
