<svg width="188" height="33" viewBox="0 0 188 33" fill="none" xmlns="http://www.w3.org/2000/svg">
<path fill-rule="evenodd" clip-rule="evenodd" d="M0.865723 0.486084H26.5198L38.3418 16.5954L26.5198 32.3662H0.865723V11.8063H9.08592L9.08582 24.3795H21.6533L27.7316 16.5145L21.6534 8.47274C14.7242 8.47264 7.7949 8.47264 0.865723 8.47264V0.486084Z" fill="#FFCC00"/>
<path d="M182.077 9.11757V25.7557H178.914V9.11757H173.734V6.4436H187.23V9.11757H182.077Z" fill="white"/>
<path d="M168.318 25.7557V6.4436H171.481V25.7557H168.318Z" fill="white"/>
<path d="M163.76 24.9817C163.76 27.426 163.27 29.1456 162.284 30.1451C161.298 31.1444 159.635 31.6442 157.299 31.6442C155.559 31.6442 154.168 31.2794 153.132 30.5501C152.092 29.8253 151.565 28.8575 151.546 27.6466L154.65 27.6331C154.695 28.1733 154.95 28.5874 155.409 28.8711C155.872 29.1546 156.522 29.2942 157.354 29.2942C158.589 29.2942 159.475 29.0241 160.016 28.4885C160.562 27.9527 160.834 27.0524 160.843 25.7964L160.871 24.1397C160.357 24.8555 159.753 25.3913 159.067 25.7425C158.376 26.0935 157.59 26.2691 156.699 26.2691C154.918 26.2691 153.509 25.6658 152.487 24.4549C151.46 23.2486 150.947 21.592 150.947 19.4896C150.947 17.4953 151.469 15.8837 152.519 14.6594C153.568 13.4304 154.936 12.8181 156.622 12.8181C157.653 12.8181 158.535 13.0297 159.266 13.4574C159.998 13.8805 160.534 14.4928 160.871 15.2895V13.2503H163.76V24.9817ZM160.952 19.4626C160.952 18.1706 160.648 17.1623 160.039 16.442C159.43 15.7172 158.58 15.3571 157.49 15.3571C156.395 15.3571 155.536 15.7308 154.913 16.4735C154.287 17.2162 153.973 18.2516 153.973 19.5706C153.973 20.8986 154.273 21.9249 154.877 22.6453C155.482 23.3701 156.336 23.7301 157.435 23.7301C158.476 23.7301 159.321 23.3385 159.971 22.5552C160.625 21.7719 160.952 20.741 160.952 19.4626Z" fill="white"/>
<path d="M135.983 25.7559V13.2503H138.7V15.3031C139.277 14.4387 139.954 13.8085 140.736 13.4124C141.518 13.0161 142.467 12.8181 143.59 12.8181C144.53 12.8181 145.33 12.9667 145.993 13.2593C146.652 13.5564 147.17 13.993 147.543 14.5738C147.765 14.9159 147.924 15.3165 148.024 15.7758C148.12 16.2305 148.17 17.0317 148.17 18.1752V25.7559H145.253V19.3364C145.253 17.6934 145.053 16.5995 144.648 16.0593C144.244 15.5191 143.526 15.249 142.494 15.249C141.822 15.249 141.218 15.3706 140.691 15.6182C140.163 15.8657 139.745 16.2124 139.445 16.6581C139.232 16.9597 139.082 17.3423 139 17.8149C138.914 18.2831 138.873 19.0304 138.873 20.0612V25.7559H135.983Z" fill="white"/>
<path d="M128.972 25.7559V13.2502H131.862V25.7559H128.972Z" fill="white"/>
<path d="M128.59 7.84814C128.59 7.3665 128.772 6.94776 129.131 6.59221C129.49 6.24103 129.917 6.06543 130.417 6.06543C130.93 6.06543 131.362 6.23656 131.703 6.57415C132.044 6.91175 132.216 7.33942 132.216 7.84814C132.216 8.36133 132.044 8.789 131.698 9.13563C131.348 9.48234 130.921 9.65774 130.417 9.65774C129.917 9.65774 129.49 9.47778 129.131 9.12213C128.772 8.76658 128.59 8.34337 128.59 7.84814Z" fill="white"/>
<path d="M112.81 25.7559V13.2503H115.527V15.3031C116.104 14.4387 116.781 13.8085 117.562 13.4124C118.344 13.0161 119.294 12.8181 120.416 12.8181C121.357 12.8181 122.156 12.9667 122.82 13.2593C123.479 13.5564 123.997 13.993 124.369 14.5738C124.592 14.9159 124.751 15.3165 124.851 15.7758C124.946 16.2305 124.996 17.0317 124.996 18.1752V25.7559H122.079V19.3364C122.079 17.6934 121.879 16.5995 121.475 16.0593C121.07 15.5191 120.352 15.249 119.321 15.249C118.648 15.249 118.044 15.3706 117.517 15.6182C116.99 15.8657 116.572 16.2124 116.272 16.6581C116.058 16.9597 115.909 17.3423 115.827 17.8149C115.74 18.2831 115.699 19.0304 115.699 20.0612V25.7559H112.81Z" fill="white"/>
<path d="M108.829 24.9817C108.829 27.426 108.338 29.1456 107.352 30.1451C106.366 31.1444 104.703 31.6442 102.368 31.6442C100.627 31.6442 99.2371 31.2794 98.2011 30.5501C97.1605 29.8253 96.6334 28.8575 96.6153 27.6466L99.7186 27.6331C99.7641 28.1733 100.019 28.5874 100.478 28.8711C100.941 29.1546 101.591 29.2942 102.422 29.2942C103.658 29.2942 104.544 29.0241 105.085 28.4885C105.63 27.9527 105.903 27.0524 105.912 25.7964L105.939 24.1397C105.426 24.8555 104.822 25.3913 104.135 25.7425C103.445 26.0935 102.659 26.2691 101.768 26.2691C99.9868 26.2691 98.5782 25.6658 97.5558 24.4549C96.529 23.2486 96.0155 21.592 96.0155 19.4896C96.0155 17.4953 96.5381 15.8837 97.5877 14.6594C98.6373 13.4304 100.005 12.8181 101.691 12.8181C102.722 12.8181 103.604 13.0297 104.335 13.4574C105.067 13.8805 105.603 14.4928 105.939 15.2895V13.2503H108.829V24.9817ZM106.021 19.4626C106.021 18.1706 105.717 17.1623 105.108 16.442C104.499 15.7172 103.649 15.3571 102.559 15.3571C101.464 15.3571 100.605 15.7308 99.9822 16.4735C99.3552 17.2162 99.0416 18.2516 99.0416 19.5706C99.0416 20.8986 99.3415 21.9249 99.9459 22.6453C100.55 23.3701 101.404 23.7301 102.504 23.7301C103.545 23.7301 104.39 23.3385 105.04 22.5552C105.694 21.7719 106.021 20.741 106.021 19.4626Z" fill="white"/>
<path d="M90.067 25.7559V13.2502H92.9568V25.7559H90.067Z" fill="white"/>
<path d="M89.6853 7.84814C89.6853 7.3665 89.8671 6.94776 90.2259 6.59221C90.5849 6.24103 91.0121 6.06543 91.5119 6.06543C92.0253 6.06543 92.457 6.23656 92.7978 6.57415C93.1385 6.91175 93.3113 7.33942 93.3113 7.84814C93.3113 8.36133 93.1385 8.789 92.7933 9.13563C92.4433 9.48234 92.0163 9.65774 91.5119 9.65774C91.0121 9.65774 90.5849 9.47778 90.2259 9.12213C89.8671 8.76658 89.6853 8.34337 89.6853 7.84814Z" fill="white"/>
<path d="M76.8763 23.4872L79.2754 22.1907C79.4526 22.8164 79.7797 23.2936 80.2614 23.6177C80.7385 23.9464 81.3564 24.1084 82.1062 24.1084C82.756 24.1084 83.2649 23.9599 83.6329 23.6674C84.0009 23.3702 84.1827 22.9695 84.1827 22.4563C84.1827 21.7811 83.5283 21.2004 82.2152 20.7141C81.7744 20.5566 81.4292 20.426 81.1929 20.3181C79.8434 19.7642 78.8982 19.2017 78.362 18.6298C77.8259 18.0626 77.5579 17.3649 77.5579 16.5501C77.5579 15.4338 77.9986 14.5289 78.88 13.8311C79.7661 13.1378 80.9339 12.7913 82.3879 12.7913C83.3648 12.7913 84.2009 12.9712 84.8962 13.327C85.5913 13.6826 86.1003 14.1868 86.4183 14.8485L84.3691 16.2484C84.2192 15.8524 83.9556 15.5372 83.5783 15.3032C83.2012 15.0691 82.765 14.952 82.2698 14.952C81.72 14.952 81.2792 15.0826 80.9475 15.3392C80.6158 15.6003 80.4476 15.9469 80.4476 16.3791C80.4476 17.0273 81.1929 17.6215 82.6787 18.1572C83.1512 18.3237 83.5148 18.4633 83.7693 18.5669C84.9325 19.0261 85.7639 19.5392 86.2684 20.1154C86.7682 20.6917 87.0181 21.4119 87.0181 22.2718C87.0181 23.5232 86.5592 24.5001 85.6459 25.2068C84.7325 25.9136 83.4739 26.2692 81.8653 26.2692C80.634 26.2692 79.6071 26.0395 78.7937 25.585C77.9758 25.1258 77.3397 24.428 76.8763 23.4872Z" fill="white"/>
<path d="M75.4532 19.9218H65.3659C65.4386 21.0922 65.7885 22.006 66.4202 22.6633C67.0471 23.3205 67.8878 23.6492 68.9375 23.6492C69.869 23.6492 70.6458 23.4556 71.2638 23.0684C71.8863 22.6813 72.4271 22.0555 72.8905 21.1913L75.3171 22.5372C74.6081 23.7978 73.7312 24.7296 72.6815 25.3463C71.6364 25.9629 70.4051 26.2691 68.9965 26.2691C66.9699 26.2691 65.3614 25.6568 64.1618 24.4368C62.9668 23.2125 62.367 21.5829 62.367 19.5437C62.367 17.5809 62.985 15.9738 64.2254 14.7089C65.4615 13.4484 67.0517 12.8181 68.9965 12.8181C71.0276 12.8181 72.6134 13.3944 73.7494 14.5469C74.8854 15.6947 75.4532 17.3108 75.4532 19.3815V19.9218ZM72.4543 18.004C72.3408 17.1082 71.9954 16.4239 71.4184 15.9558C70.8413 15.483 70.0506 15.249 69.0511 15.249C68.1014 15.249 67.338 15.4787 66.7609 15.9333C66.1885 16.3925 65.784 17.0812 65.5522 18.004H72.4543Z" fill="white"/>
<path d="M56.4238 5.30933H59.3136V25.7559H56.4238V24.1398C55.9104 24.8555 55.306 25.3913 54.6197 25.7425C53.9292 26.0935 53.143 26.2691 52.2524 26.2691C50.4713 26.2691 49.0627 25.6658 48.0403 24.4549C47.0134 23.2486 46.4999 21.592 46.4999 19.4896C46.4999 17.4953 47.0225 15.8838 48.0722 14.6594C49.1218 13.4304 50.4895 12.8181 52.1752 12.8181C53.2067 12.8181 54.0882 13.0297 54.8198 13.4574C55.5514 13.8805 56.0875 14.4928 56.4238 15.2895V5.30933ZM56.5056 19.4627C56.5056 18.1706 56.2012 17.1623 55.5922 16.442C54.9833 15.7172 54.1337 15.3571 53.0432 15.3571C51.948 15.3571 51.0893 15.7308 50.4667 16.4735C49.8397 17.2162 49.5261 18.2517 49.5261 19.5706C49.5261 20.8986 49.826 21.9249 50.4305 22.6453C51.0347 23.3701 51.889 23.7302 52.9886 23.7302C54.0336 23.7302 54.8835 23.3385 55.5332 22.5598C56.1783 21.781 56.5056 20.75 56.5056 19.4627Z" fill="white"/>
</svg>
