<svg width="234" height="185" viewBox="0 0 234 185" fill="none" xmlns="http://www.w3.org/2000/svg">
<path d="M76.9659 86.3959L100.874 0H47.0805L15.565 78.2454C3.06752 108.131 0.894043 118.455 0.894043 132.582C0.894043 163.555 23.1722 184.746 53.601 184.746C83.4864 184.746 105.765 164.098 105.765 132.582C105.765 110.304 94.8971 94.0031 76.9659 86.3959ZM205.201 86.3959L229.11 0H175.316L143.8 78.2454C131.303 108.131 129.129 118.455 129.129 132.582C129.129 163.555 151.408 184.746 181.836 184.746C211.722 184.746 234 164.098 234 132.582C234 110.304 223.133 94.0031 205.201 86.3959Z" fill="#FFCC00"/>
</svg>
